<?xml version="1.0" encoding="UTF-8"?>
<!DOCTYPE svg  PUBLIC '-//W3C//DTD SVG 1.1//EN'  'http://www.w3.org/Graphics/SVG/1.1/DTD/svg11.dtd'>
<svg enable-background="new 0 0 500 500" version="1.1" viewBox="0 0 500 500" xml:space="preserve" xmlns="http://www.w3.org/2000/svg">
<radialGradient id="t" cx="-25.872" cy="20.8" r="0" gradientUnits="userSpaceOnUse">
	<stop stop-color="#F6F6F6" offset="0"/>
	<stop stop-color="#F2F2F2" offset=".2275"/>
	<stop stop-color="#E7E7E7" offset=".5097"/>
	<stop stop-color="#D4D4D4" offset=".8195"/>
	<stop stop-color="#C6C6C6" offset="1"/>
</radialGradient>
<path d="m-25.9 20.8" fill="url(#t)"/>
	<linearGradient id="u" x1="122.86" x2="199.39" y1="297.44" y2="297.44" gradientUnits="userSpaceOnUse">
		<stop stop-color="#2C6B35" offset="0"/>
		<stop stop-color="#92C144" offset="1"/>
	</linearGradient>
	<path d="m179.4 354.4c-26.4 18.2-43.9 31.4-43.9 49.9 0 8.4 0 16.2-0.1 23.5-0.5 1.2-0.9 2.3-1.4 3.6-3.4-75.6-10.3-113.3-11-125.7-2.7-50.7 15.4-118 76.3-142.3-23.9 55-44.3 119.2-19.9 191z" fill="url(#u)"/>
	<linearGradient id="v" x1="168.38" x2="238.16" y1="253.4" y2="253.4" gradientUnits="userSpaceOnUse">
		<stop stop-color="#2C6B35" offset="0"/>
		<stop stop-color="#92C144" offset="1"/>
	</linearGradient>
	<path d="m234.5 314.4c-20.3 16.6-39.3 29.2-55 40-24.5-71.8-4.1-136 19.9-191 6.2-2.5 12.8-4.5 19.9-6 6.5-1.4 12.8-3.1 18.9-5-15.7 40.3-22.1 109.7-3.7 162z" fill="url(#v)"/>
	<linearGradient id="w" x1="223.28" x2="302.15" y1="217.57" y2="217.57" gradientUnits="userSpaceOnUse">
		<stop stop-color="#2C6B35" offset="0"/>
		<stop stop-color="#92C144" offset="1"/>
	</linearGradient>
	<path d="m269.8 282.1l-0.6 0.6c-11.8 12-23.5 22.4-34.8 31.6-18.4-52.3-11.9-121.6 3.7-162 24.2-7.6 45-19.1 61.8-31.6 4.1 38.6 6.6 122.6-30.1 161.4z" fill="url(#w)"/>
	<linearGradient id="x" x1="269.84" x2="345.2" y1="174.03" y2="174.03" gradientUnits="userSpaceOnUse">
		<stop stop-color="#2C6B35" offset="0"/>
		<stop stop-color="#92C144" offset="1"/>
	</linearGradient>
	<path d="m345.2 65.9c-1.9 50.7-11.1 139.9-49.8 187.6-8.5 10.4-17 19.9-25.5 28.6 36.6-38.8 34.1-122.8 30.1-161.3 25.1-18.9 41-40.2 45.2-54.9z" fill="url(#x)"/>
	<linearGradient id="y" x1="327.52" x2="351.56" y1="256.63" y2="97.27" gradientUnits="userSpaceOnUse">
		<stop stop-color="#92C144" offset="0"/>
		<stop stop-color="#2C6B35" offset="1"/>
	</linearGradient>
	<path d="m393.1 182.4c-37.8 101.9-123.8 100.4-123.8 100.4l0.6-0.6c8.5-8.7 17-18.1 25.5-28.6 38.8-47.7 47.9-136.9 49.8-187.6 0.6-2.2 1-4.2 1.1-6.1 7.2 8 36 61.5 46.8 122.5z" fill="url(#y)"/>
	<linearGradient id="z" x1="234.46" x2="397.14" y1="251.75" y2="251.75" gradientUnits="userSpaceOnUse">
		<stop stop-color="#92C144" offset="0"/>
		<stop stop-color="#2C6B35" offset="1"/>
	</linearGradient>
	<path d="m368.7 317.4c-57 9.8-134.2-3.1-134.2-3.1 11.3-9.2 23-19.6 34.8-31.6 0 0 86 1.5 123.8-100.4 8.2 46.4 5.9 97-24.4 135.1z" fill="url(#z)"/>
	<linearGradient id="aa" x1="179.45" x2="368.71" y1="340.58" y2="340.58" gradientUnits="userSpaceOnUse">
		<stop stop-color="#92C144" offset="0"/>
		<stop stop-color="#2C6B35" offset="1"/>
	</linearGradient>
	<path d="m368.7 317.4c-9.2 11.6-21.1 22.1-36.1 30.9-12.3 6.9-23.7 12.8-34.4 17.9-61.1 3.7-118.8-11.8-118.8-11.8 15.8-10.8 34.7-23.5 55-40 0.1 0 77.3 12.9 134.3 3z" fill="url(#aa)"/>
	<linearGradient id="ab" x1="135.46" x2="298.24" y1="391.13" y2="391.13" gradientUnits="userSpaceOnUse">
		<stop stop-color="#92C144" offset="0"/>
		<stop stop-color="#2C6B35" offset="1"/>
	</linearGradient>
	<path d="m298.2 366.2c-115.4 54.9-143.3 12.5-162.8 61.6 0-7.3 0.1-15.1 0.1-23.5 0-18.5 17.5-31.7 43.9-49.9 0 0 57.7 15.5 118.8 11.8z" fill="url(#ab)"/>
	<linearGradient id="o" x1="322.57" x2="112.38" y1="64.627" y2="410.13" gradientUnits="userSpaceOnUse">
		<stop stop-color="#7BC8CD" offset="0"/>
		<stop stop-color="#7BC8CD" stop-opacity="0" offset="1"/>
	</linearGradient>
	<path d="m295.1 254c38.8-47.7 47.5-136.9 49.5-187.6-7.8 26.9-54.4 76.2-125.5 91.4-76.9 16.5-99.1 92.5-96.2 148.4 0.7 12.4 7.6 50.1 11 125.7 0.5-1.3 0.9-2.5 1.4-3.6 0-7.3 0.1-15.1 0.1-23.5-0.2-40.2 82-55.3 159.7-150.8z" fill="url(#o)" opacity=".44"/>
	<linearGradient id="p" x1="134.92" x2="396.6" y1="244.95" y2="244.95" gradientUnits="userSpaceOnUse">
		<stop stop-color="#19598C" offset="0"/>
		<stop stop-color="#19598C" stop-opacity="0" offset="1"/>
	</linearGradient>
	<path d="m345.8 61c-0.1 1.9-0.5 3.9-1.1 6.1-1.9 50.7-11.1 139.9-49.8 187.6-77.7 95.4-159.9 110.5-159.9 150.7 0 8.4 0 16.2-0.1 23.5 21.2-53.7 52.6 1.9 197.1-79.5 128.5-75.5 28-272.5 13.8-288.4z" fill="url(#p)"/>
		<linearGradient id="q" x1="135.06" x2="346.42" y1="243.97" y2="243.97" gradientUnits="userSpaceOnUse">
			<stop stop-color="#2C6B35" offset="0"/>
			<stop stop-color="#92C144" offset=".4988"/>
			<stop stop-color="#2C6B35" offset="1"/>
		</linearGradient>
		<path d="m297.7 256c38.8-47.7 46.4-139.3 48.4-189.9 0.6-2.2 0.3-4.2 0.4-6 0 0 0-0.1-0.1-0.1-0.1 1.9-0.5 3.9-1.1 6.1-1.9 50.7-11.5 139.9-50.2 187.6-77.6 95.5-159.8 110.6-159.8 150.8 0 8.4 0 16.2-0.1 23.5 0-7.3 0-17.2 3-25.2 18.4-48.7 81.9-51.3 159.5-146.8z" fill="url(#q)"/>
		<linearGradient id="r" x1="135.06" x2="205.05" y1="412.16" y2="412.16" gradientUnits="userSpaceOnUse">
			<stop stop-color="#2C6B35" offset="0"/>
			<stop stop-color="#92C144" offset=".4988"/>
			<stop stop-color="#2C6B35" offset="1"/>
		</linearGradient>
		<path d="m135.1 428c12.6-31.8 28.8-25.2 70-31.6-41.5 4.3-58.6-3.2-70 31.6z" fill="url(#r)"/>
	<linearGradient id="s" x1="122.9" x2="345.25" y1="248.53" y2="248.53" gradientUnits="userSpaceOnUse">
		<stop stop-color="#2C6B35" offset="0"/>
		<stop stop-color="#92C144" offset=".4988"/>
		<stop stop-color="#2C6B35" offset="1"/>
	</linearGradient>
	<path d="m224.8 159.6c71.2-15.2 112.7-66.9 120.5-93.8-7.8 26.9-54.8 76.2-125.9 91.4-76.9 16.5-99.1 92.5-96.2 148.4 0.7 12.4 7.6 50.1 11 125.7-3.4-75.6-4.9-111-5.5-123.4-3-55.8 19.1-131.9 96.1-148.3z" fill="url(#s)"/>
</svg>
